<svg xmlns="http://www.w3.org/2000/svg" viewBox="0 0 488.095 488.095"><path d="M352.637 348.499c-16.518-16.52-76.46 16.656-92.988 33.175-1.066 1.059-2.021 2.422-3.022 3.649l.092-170.074c27.716 0 56.811-8.31 69.77-34.476 11.555-23.336 13.536-113.133 13.872-146.917a6.325 6.325 0 00-3.513-5.717 6.303 6.303 0 00-6.671.673c-12.094 9.414-33.135 26.093-53.607 43.687-11.187-26.871-23.984-54.015-31.187-68.931A6.303 6.303 0 00239.697 0a6.285 6.285 0 00-5.677 3.568c-7.202 14.907-20 42.051-31.186 68.923-20.474-17.586-41.517-34.265-53.608-43.679a6.301 6.301 0 00-6.671-.673 6.325 6.325 0 00-3.513 5.717c.336 33.784 2.317 123.581 13.872 146.917 13.191 26.64 43.167 34.736 71.273 34.736l.041 85.317c-20.689-17.241-73.431-44.74-88.771-29.399-16.527 16.528 16.64 76.479 33.167 92.997 12.493 12.494 37.161 21.811 55.604 18.476v88.997c0 8.949 7.249 16.198 16.198 16.198 8.942 0 16.199-7.249 16.199-16.198v-14.114c18.619 8.028 48.611-2.053 62.845-16.278 16.529-16.537 49.695-76.479 33.167-93.006z"/></svg>
